<svg xmlns="http://www.w3.org/2000/svg" width="1060" height="390" viewBox="360 250 1060 390"><title>Vertex</title><path d="M377 395 L436 490 L495 395 M530 443 H655 C655 413 635 395 604 395 H582 C551 395 530 414 530 443 C530 473 551 492 582 492 H618 C637 492 649 486 655 476 M695 492 V395 M695 438 C695 411 717 395 757 395 M812 350 V458 C812 480 824 492 846 492 M789 395 H845 M878 443 H1003 C1003 413 983 395 952 395 H930 C899 395 878 414 878 443 C878 473 899 492 930 492 H966 C985 492 997 486 1003 476" fill="none" stroke="#b7df58" stroke-width="11" stroke-linecap="round" stroke-linejoin="round"/><g fill="#b7df58"><polygon points="928.0,265.0 1058.0,265.0 1152.5,359.5 1087.5,424.5"/><polygon points="928.0,625.0 1058.0,625.0 1152.5,530.5 1087.5,465.5"/><circle cx="1109.0" cy="445.0" r="8.79"/><circle cx="1125.0" cy="429.0" r="9.00"/><circle cx="1125.0" cy="461.0" r="9.00"/><circle cx="1141.0" cy="413.0" r="8.83"/><circle cx="1141.0" cy="445.0" r="9.46"/><circle cx="1141.0" cy="477.0" r="8.83"/><circle cx="1157.0" cy="397.0" r="8.46"/><circle cx="1157.0" cy="429.0" r="9.06"/><circle cx="1157.0" cy="461.0" r="9.06"/><circle cx="1157.0" cy="493.0" r="8.46"/><circle cx="1173.0" cy="381.0" r="8.03"/><circle cx="1173.0" cy="413.0" r="8.59"/><circle cx="1173.0" cy="445.0" r="8.88"/><circle cx="1173.0" cy="477.0" r="8.59"/><circle cx="1173.0" cy="509.0" r="8.03"/><circle cx="1189.0" cy="365.0" r="7.58"/><circle cx="1189.0" cy="397.0" r="8.12"/><circle cx="1189.0" cy="429.0" r="8.49"/><circle cx="1189.0" cy="461.0" r="8.49"/><circle cx="1189.0" cy="493.0" r="8.12"/><circle cx="1189.0" cy="525.0" r="7.58"/><circle cx="1205.0" cy="349.0" r="7.12"/><circle cx="1205.0" cy="381.0" r="7.65"/><circle cx="1205.0" cy="413.0" r="8.05"/><circle cx="1205.0" cy="445.0" r="8.21"/><circle cx="1205.0" cy="477.0" r="8.05"/><circle cx="1205.0" cy="509.0" r="7.65"/><circle cx="1205.0" cy="541.0" r="7.12"/><circle cx="1221.0" cy="333.0" r="6.66"/><circle cx="1221.0" cy="365.0" r="7.18"/><circle cx="1221.0" cy="397.0" r="7.60"/><circle cx="1221.0" cy="429.0" r="7.84"/><circle cx="1221.0" cy="461.0" r="7.84"/><circle cx="1221.0" cy="493.0" r="7.60"/><circle cx="1221.0" cy="525.0" r="7.18"/><circle cx="1221.0" cy="557.0" r="6.66"/><circle cx="1237.0" cy="317.0" r="6.20"/><circle cx="1237.0" cy="349.0" r="6.71"/><circle cx="1237.0" cy="381.0" r="7.14"/><circle cx="1237.0" cy="413.0" r="7.44"/><circle cx="1237.0" cy="445.0" r="7.55"/><circle cx="1237.0" cy="477.0" r="7.44"/><circle cx="1237.0" cy="509.0" r="7.14"/><circle cx="1237.0" cy="541.0" r="6.71"/><circle cx="1237.0" cy="573.0" r="6.20"/><circle cx="1253.0" cy="301.0" r="5.73"/><circle cx="1253.0" cy="333.0" r="6.24"/><circle cx="1253.0" cy="365.0" r="6.67"/><circle cx="1253.0" cy="397.0" r="7.00"/><circle cx="1253.0" cy="429.0" r="7.19"/><circle cx="1253.0" cy="461.0" r="7.19"/><circle cx="1253.0" cy="493.0" r="7.00"/><circle cx="1253.0" cy="525.0" r="6.67"/><circle cx="1253.0" cy="557.0" r="6.24"/><circle cx="1253.0" cy="589.0" r="5.73"/><circle cx="1269.0" cy="285.0" r="5.27"/><circle cx="1269.0" cy="317.0" r="5.77"/><circle cx="1269.0" cy="349.0" r="6.21"/><circle cx="1269.0" cy="381.0" r="6.56"/><circle cx="1269.0" cy="413.0" r="6.80"/><circle cx="1269.0" cy="477.0" r="6.80"/><circle cx="1269.0" cy="509.0" r="6.56"/><circle cx="1269.0" cy="541.0" r="6.21"/><circle cx="1269.0" cy="573.0" r="5.77"/><circle cx="1269.0" cy="605.0" r="5.27"/><circle cx="1285.0" cy="301.0" r="5.30"/><circle cx="1285.0" cy="333.0" r="5.74"/><circle cx="1285.0" cy="365.0" r="6.11"/><circle cx="1285.0" cy="397.0" r="6.38"/><circle cx="1285.0" cy="493.0" r="6.38"/><circle cx="1285.0" cy="525.0" r="6.11"/><circle cx="1285.0" cy="557.0" r="5.74"/><circle cx="1285.0" cy="589.0" r="5.30"/><circle cx="1301.0" cy="285.0" r="4.83"/><circle cx="1301.0" cy="317.0" r="5.27"/><circle cx="1301.0" cy="349.0" r="5.66"/><circle cx="1301.0" cy="381.0" r="5.96"/><circle cx="1301.0" cy="509.0" r="5.96"/><circle cx="1301.0" cy="541.0" r="5.66"/><circle cx="1301.0" cy="573.0" r="5.27"/><circle cx="1301.0" cy="605.0" r="4.83"/><circle cx="1317.0" cy="301.0" r="4.80"/><circle cx="1317.0" cy="333.0" r="5.20"/><circle cx="1317.0" cy="365.0" r="5.52"/><circle cx="1317.0" cy="525.0" r="5.52"/><circle cx="1317.0" cy="557.0" r="5.20"/><circle cx="1317.0" cy="589.0" r="4.80"/><circle cx="1333.0" cy="285.0" r="4.34"/><circle cx="1333.0" cy="317.0" r="4.74"/><circle cx="1333.0" cy="349.0" r="5.07"/><circle cx="1333.0" cy="541.0" r="5.07"/><circle cx="1333.0" cy="573.0" r="4.74"/><circle cx="1333.0" cy="605.0" r="4.34"/><circle cx="1349.0" cy="269.0" r="3.87"/><circle cx="1349.0" cy="301.0" r="4.27"/><circle cx="1349.0" cy="333.0" r="4.63"/><circle cx="1349.0" cy="557.0" r="4.63"/><circle cx="1349.0" cy="589.0" r="4.27"/><circle cx="1349.0" cy="621.0" r="3.87"/><circle cx="1365.0" cy="285.0" r="3.81"/><circle cx="1365.0" cy="317.0" r="4.17"/><circle cx="1365.0" cy="573.0" r="4.17"/><circle cx="1365.0" cy="605.0" r="3.81"/><circle cx="1381.0" cy="269.0" r="3.35"/><circle cx="1381.0" cy="301.0" r="3.72"/><circle cx="1381.0" cy="589.0" r="3.72"/><circle cx="1381.0" cy="621.0" r="3.35"/><circle cx="1397.0" cy="285.0" r="3.26"/><circle cx="1397.0" cy="605.0" r="3.26"/><circle cx="1413.0" cy="269.0" r="2.80"/><circle cx="1413.0" cy="621.0" r="2.80"/></g></svg>
